<svg width="150" height="50" fill="none" xmlns="http://www.w3.org/2000/svg"><path d="M0 39V11.735h9.54c2.917 0 5.034.246 6.35.739 1.328.48 2.39 1.343 3.184 2.587.795 1.244 1.192 2.667 1.192 4.268 0 2.032-.602 3.714-1.806 5.044-1.204 1.318-2.564 2.282-4.96 2.627 1 .5 1.23 1.175 2 2 .782.825 1.684 2.394 3 4.5l2.592 5.5H14.5l-2.595-6.072C10.49 30.822 10.021 30.042 9.5 29.5c-1-1-2.039-1-3.5-1V39H0zm6-16.167h1.547c2.644 0 3.295-.111 3.953-.333.658-.222 1.155-.246 1.528-.788.372-.541.558-1.219.558-2.032 0-.912-.248-1.645-.744-2.199-.485-.566-1.186-.74-2.08-.889-.446-.061-.787-.092-3.022-.092H6v6.333zM26.5 39V12h6v27h-6zM45 39V17h-7v-5h20.5v5H51v22h-6zM57 49.5 76.5 0h6L63 49.5h-6zM85.57 39V12h9.28l4.954 17.75L104.7 12H114v27h-6.152V17.038L102.429 39h-5.307L90.69 17.038V39H85.57zM119.02 25.445c0-2.76.415-4.348 1.247-6.22a12.835 12.835 0 0 1 2.533-3.714c1.08-1.097 2.259-1.91 3.538-2.44C128.039 12.358 130 12 132.223 12c4.022 0 7.237 1.238 9.646 3.714 2.421 2.476 3.631 5.192 3.631 9.601 0 4.373-1.198 7.798-3.594 10.274-2.396 2.463-5.674 3.411-9.683 3.411-4.06 0-7.213-.942-9.609-3.393-2.396-2.463-3.594-5.85-3.594-10.162zm5.679-.185c0 3.067.714 5.395 2.142 6.984 1.427 1.577 3.24 2.365 5.437 2.365 2.198 0 3.998-.782 5.401-2.346 1.415-1.577 2.123-3.936 2.123-7.077 0-3.104-.689-4.693-2.067-6.22-1.366-1.528-3.185-2.291-5.457-2.291-2.271 0-4.103.776-5.493 2.328-1.391 1.54-2.086 3.14-2.086 6.257z" fill="#000"/></svg>